<svg width="36" height="144" viewBox="0 0 36 144" fill="none" xmlns="http://www.w3.org/2000/svg">
<path d="M2.00001 106.313H34V74.3132H2L2.00001 106.313Z" fill="#00A2FF"/>
<path d="M18 89.3132C20.7614 89.3132 23 87.0746 23 84.3132C23 81.5517 20.7614 79.3132 18 79.3132C15.2386 79.3132 13 81.5517 13 84.3132C13 87.0746 15.2386 89.3132 18 89.3132Z" stroke="white" stroke-width="2" stroke-miterlimit="10" stroke-linecap="round" stroke-linejoin="round"/>
<path d="M18 92.3132C18 92.3132 23 92.3132 24 93.3132C25 94.3132 26 99.3132 26 99.3132C26 99.3132 22.9 101.313 18 101.313C13.1 101.313 10 99.3132 10 99.3132C10 99.3132 11 94.3132 12 93.3132C13 92.3132 18 92.3132 18 92.3132Z" stroke="white" stroke-width="2" stroke-miterlimit="10" stroke-linecap="round" stroke-linejoin="round"/>
<path d="M2.00001 70.3132H34V38.3132H2L2.00001 70.3132Z" fill="#F68802"/>
<path d="M8 47.3132V52.3132L10 54.3132H15L18 57.3132V62.3132L20 64.3132H25L22 61.3132V58.3132H25L28 61.3132V56.3132L26 54.3132H21L18 51.3132V46.3132L16 44.3132H11L14 47.3132V50.3132H11L8 47.3132Z" stroke="white" stroke-width="2" stroke-miterlimit="10" stroke-linecap="round" stroke-linejoin="round"/>
<path d="M2.00001 34.3132H34V2.31317H2L2.00001 34.3132Z" fill="#02B757"/>
<path d="M16 23.3132H20L25 25.3132H29V14.3132L24.2 11.3132H12L7 14.3132V25.3132H11L16 23.3132Z" stroke="white" stroke-width="2" stroke-miterlimit="10" stroke-linecap="round" stroke-linejoin="round"/>
<path d="M11 18.3132H15" stroke="white" stroke-width="2" stroke-miterlimit="10" stroke-linecap="round" stroke-linejoin="round"/>
<path d="M13 16.3132V20.3132" stroke="white" stroke-width="2" stroke-miterlimit="10" stroke-linecap="round" stroke-linejoin="round"/>
<path d="M22 15.3132C21.2 15.3132 20.5 16.0132 20.5 16.8132C20.5 17.6132 21.2 18.3132 22 18.3132C22.8 18.3132 23.5 17.6132 23.5 16.8132C23.5 16.0132 22.8 15.3132 22 15.3132Z" fill="white"/>
<path d="M25 18.3132C24.2 18.3132 23.5 19.0132 23.5 19.8132C23.5 20.6132 24.2 21.3132 25 21.3132C25.8 21.3132 26.5 20.6132 26.5 19.8132C26.5 19.0132 25.8 18.3132 25 18.3132Z" fill="white"/>
<path d="M2.00001 142.313H34V110.313H2L2.00001 142.313Z" fill="black"/>
<path d="M32.665 111.648V140.978H3.33496V111.648H32.665Z" fill="#232527" stroke="#BDBEBE" stroke-width="2.67"/>
</svg>
